<svg width="6" height="9" viewBox="0 0 6 9" fill="none" xmlns="http://www.w3.org/2000/svg">
<path d="M0.443795 8.41468C0.443795 8.36912 0.462856 8.32357 0.500783 8.28887L4.64224 4.5L0.500783 0.711126C0.424734 0.641552 0.424734 0.529094 0.500783 0.459519C0.576832 0.389945 0.699756 0.389945 0.775805 0.459519L5.05477 4.3742C5.13082 4.44377 5.13082 4.55623 5.05477 4.6258L0.775804 8.54048C0.699755 8.61005 0.576832 8.61005 0.500783 8.54048C0.462856 8.50578 0.443795 8.46023 0.443795 8.41468Z" fill="#01B8E6"/>
<path fill-rule="evenodd" clip-rule="evenodd" d="M0.775804 8.54048L0.774875 8.54132C0.698757 8.61005 0.576523 8.60977 0.500783 8.54048C0.462856 8.50578 0.443795 8.46023 0.443795 8.41468C0.443795 8.36912 0.462856 8.32357 0.500783 8.28887L4.64224 4.5L0.500783 0.711126C0.424734 0.641552 0.424734 0.529094 0.500783 0.459519C0.576523 0.390227 0.698757 0.389946 0.774875 0.458674L0.775805 0.459519L5.05477 4.3742C5.13082 4.44377 5.13082 4.55623 5.05477 4.6258L0.775804 8.54048ZM4.01363 4.5L0.187536 0.999643C-0.0625121 0.770883 -0.0625121 0.399763 0.187536 0.171003C0.436757 -0.0570009 0.839831 -0.0570009 1.08905 0.171003L5.36802 4.08568C5.61807 4.31444 5.61807 4.68556 5.36802 4.91432L1.08905 8.829C0.83983 9.057 0.436757 9.057 0.187536 8.829C0.0630593 8.71512 4.80048e-05 8.56454 4.80119e-05 8.41468C4.8019e-05 8.26481 0.0630593 8.11423 0.187536 8.00036L4.01363 4.5ZM0.814031 8.57739L0.814954 8.57654L0.814031 8.57739Z" fill="#01B8E6"/>
</svg>
